<svg width="60" height="59" viewBox="0 0 60 59" fill="none" xmlns="http://www.w3.org/2000/svg">
<path fill-rule="evenodd" clip-rule="evenodd" d="M30.0002 0C13.4337 0 0 13.5417 0 30.2469C0 43.6107 8.59598 54.9485 20.516 58.948C22.0153 59.228 22.5658 58.2919 22.5658 57.493C22.5658 56.7717 22.5379 54.389 22.525 51.8616C14.1789 53.6913 12.4178 48.2929 12.4178 48.2929C11.0531 44.7968 9.08681 43.8672 9.08681 43.8672C6.36489 41.9899 9.29199 42.0284 9.29199 42.0284C12.3045 42.2418 13.8908 45.1454 13.8908 45.1454C16.5665 49.7695 20.909 48.4326 22.6209 47.6598C22.8902 45.7049 23.6676 44.3705 24.5256 43.6152C17.8621 42.8504 10.8574 40.2569 10.8574 28.6671C10.8574 25.3648 12.0293 22.6666 13.9484 20.5484C13.6369 19.7866 12.6101 16.7102 14.239 12.5439C14.239 12.5439 16.7583 11.731 22.4912 15.6443C24.8843 14.9742 27.4507 14.6381 30.0002 14.6266C32.5498 14.6381 35.1182 14.9742 37.5157 15.6443C43.2417 11.731 45.7575 12.5439 45.7575 12.5439C47.3904 16.7102 46.3631 19.7866 46.0516 20.5484C47.9752 22.6666 49.1391 25.3648 49.1391 28.6671C49.1391 40.2844 42.121 42.8424 35.4406 43.5912C36.5167 44.5298 37.4755 46.3705 37.4755 49.1925C37.4755 53.2395 37.4407 56.4967 37.4407 57.493C37.4407 58.2979 37.9807 59.241 39.5014 58.944C51.4149 54.94 60 43.6062 60 30.2469C60 13.5417 46.5682 0 30.0002 0Z" fill="#161514"/>
<path fill-rule="evenodd" clip-rule="evenodd" d="M11.4511 43.2204C11.3851 43.3691 11.1511 43.4138 10.9378 43.3116C10.7206 43.2139 10.5987 43.0111 10.6691 42.8618C10.7335 42.7085 10.9681 42.6659 11.1848 42.7686C11.4025 42.8663 11.5264 43.0711 11.4511 43.2204Z" fill="#161514"/>
<path fill-rule="evenodd" clip-rule="evenodd" d="M12.664 44.5732C12.5212 44.7056 12.242 44.6441 12.0526 44.4348C11.8567 44.2261 11.82 43.9468 11.9648 43.8124C12.1121 43.68 12.3828 43.742 12.5792 43.9508C12.775 44.1621 12.8132 44.4393 12.664 44.5732Z" fill="#161514"/>
<path fill-rule="evenodd" clip-rule="evenodd" d="M13.8446 46.2981C13.6612 46.4256 13.3612 46.306 13.1757 46.0397C12.9922 45.7734 12.9922 45.454 13.1797 45.3261C13.3656 45.1981 13.6612 45.3132 13.8491 45.5775C14.0321 45.8483 14.0321 46.1677 13.8446 46.2981Z" fill="#161514"/>
<path fill-rule="evenodd" clip-rule="evenodd" d="M15.4621 47.9645C15.298 48.1455 14.9484 48.0969 14.6926 47.8499C14.4307 47.6084 14.3578 47.2657 14.5225 47.0847C14.6886 46.9032 15.0402 46.9542 15.298 47.1992C15.5578 47.4403 15.6372 47.7854 15.4621 47.9645Z" fill="#161514"/>
<path fill-rule="evenodd" clip-rule="evenodd" d="M17.6936 48.932C17.6212 49.1666 17.2845 49.2732 16.9453 49.1735C16.6066 49.0709 16.385 48.7961 16.4534 48.5591C16.5238 48.323 16.862 48.2119 17.2036 48.3185C17.5418 48.4207 17.764 48.6935 17.6936 48.932Z" fill="#161514"/>
<path fill-rule="evenodd" clip-rule="evenodd" d="M20.1441 49.1115C20.1526 49.3585 19.865 49.5633 19.5089 49.5678C19.1509 49.5757 18.8613 49.3759 18.8574 49.1329C18.8574 48.8834 19.1385 48.6806 19.4965 48.6746C19.8526 48.6677 20.1441 48.866 20.1441 49.1115Z" fill="#161514"/>
<path fill-rule="evenodd" clip-rule="evenodd" d="M22.4246 48.7232C22.4673 48.9643 22.2198 49.2117 21.8663 49.2777C21.5187 49.3412 21.1969 49.1924 21.1527 48.9533C21.1096 48.7064 21.3615 48.4589 21.7086 48.3949C22.0626 48.3334 22.3795 48.4782 22.4246 48.7232Z" fill="#161514"/>
</svg>
