<svg width="60" height="60" viewBox="0 0 60 60" fill="none" xmlns="http://www.w3.org/2000/svg">
<path fill-rule="evenodd" clip-rule="evenodd" d="M30 60C46.5685 60 60 46.5685 60 30C60 13.4315 46.5685 0 30 0C13.4315 0 0 13.4315 0 30C0 46.5685 13.4315 60 30 60Z" fill="#0971BD"/>
<path fill-rule="evenodd" clip-rule="evenodd" d="M30.418 28.3163C28.0744 28.3163 16 21.4692 16 21.4692V20.4C16 19.0752 17.0752 18 18.4024 18H42.4336C43.762 18 44.8372 19.0752 44.8372 20.4L44.818 21.6C44.818 21.6 32.8744 28.3163 30.418 28.3163ZM30.418 31.6162C32.9872 31.6162 44.818 25.2 44.818 25.2L44.8372 39.6C44.8372 40.9248 43.762 42 42.4336 42H18.4024C17.0764 42 16 40.9248 16 39.6L16.0192 25.2C16.018 25.2 28.0744 31.6162 30.418 31.6162Z" fill="white"/>
</svg>
