<svg width="60" height="60" viewBox="0 0 60 60" fill="none" xmlns="http://www.w3.org/2000/svg">
<path fill-rule="evenodd" clip-rule="evenodd" d="M60 30C60 46.5685 46.5685 60 30 60C13.4315 60 0 46.5685 0 30C0 13.4315 13.4315 0 30 0C46.5685 0 60 13.4315 60 30ZM30.9814 46.6906H30.9888C40.8243 46.6866 48.8237 38.6853 48.8277 28.8519C48.8296 24.0854 46.9758 19.6035 43.6078 16.2318C40.2397 12.8598 35.7608 11.002 30.9886 11C21.156 11 13.1535 19.0021 13.1495 28.8378C13.1482 31.9819 13.9697 35.0506 15.5308 37.7561L13 47L22.4567 44.5193C25.0623 45.9405 27.9959 46.6896 30.9814 46.6906Z" fill="#6F6F6F"/>
<path fill-rule="evenodd" clip-rule="evenodd" d="M23.4363 41.6112L22.8948 41.2899L17.2831 42.7619L18.781 37.2905L18.4285 36.7295C16.9442 34.3689 16.1603 31.6405 16.1615 28.8388C16.1647 20.6639 22.8162 14.013 30.9947 14.013C34.955 14.0144 38.6777 15.5586 41.4771 18.3612C44.2765 21.1638 45.8173 24.889 45.8157 28.8508C45.8124 37.0264 39.1611 43.6779 30.9889 43.6779H30.9829C28.3223 43.6769 25.7128 42.9621 23.4363 41.6112ZM39.3656 32.6926C39.6765 32.8428 39.8864 32.9443 39.976 33.0939C40.0874 33.2798 40.0874 34.1722 39.7162 35.2136C39.3445 36.2547 37.5638 37.205 36.7074 37.3329C35.9395 37.4477 34.9677 37.4956 33.9 37.1563C33.2526 36.9509 32.4224 36.6766 31.3589 36.2173C27.1802 34.413 24.3563 30.3629 23.8226 29.5975C23.7852 29.5439 23.7591 29.5064 23.7445 29.4869L23.741 29.4822C23.5053 29.1677 21.9244 27.0587 21.9244 24.876C21.9244 22.8228 22.933 21.7466 23.3973 21.2513C23.4291 21.2173 23.4583 21.1861 23.4845 21.1575C23.893 20.7112 24.376 20.5997 24.6731 20.5997C24.9702 20.5997 25.2677 20.6024 25.5274 20.6155C25.5594 20.6171 25.5928 20.6169 25.6273 20.6167C25.887 20.6152 26.2108 20.6133 26.5303 21.3806C26.6529 21.6752 26.8322 22.1116 27.0213 22.5722C27.4052 23.5068 27.8299 24.5408 27.9045 24.6902C28.016 24.9134 28.0903 25.1736 27.9417 25.4712C27.9194 25.5159 27.8987 25.558 27.879 25.5983C27.7674 25.8261 27.6853 25.9936 27.496 26.2147C27.4215 26.3017 27.3445 26.3954 27.2676 26.4891C27.1143 26.6759 26.9609 26.8626 26.8274 26.9957C26.6042 27.2179 26.3719 27.4591 26.632 27.9053C26.892 28.3516 27.7865 29.8111 29.1116 30.9931C30.5359 32.2635 31.7739 32.8005 32.4014 33.0728C32.524 33.1259 32.6233 33.169 32.6961 33.2055C33.1417 33.4286 33.4017 33.3913 33.6617 33.0939C33.9218 32.7964 34.776 31.7923 35.0731 31.3461C35.3702 30.9001 35.6675 30.9744 36.076 31.1231C36.4846 31.272 38.676 32.3501 39.1218 32.5732C39.2088 32.6168 39.2902 32.6561 39.3656 32.6926Z" fill="#6F6F6F"/>
</svg>
